<?xml version="1.0" standalone="no"?>
<!DOCTYPE svg PUBLIC "-//W3C//DTD SVG 20010904//EN"
 "http://www.w3.org/TR/2001/REC-SVG-20010904/DTD/svg10.dtd">
<svg xmlns="http://www.w3.org/2000/svg" width="214.000000pt" height="121.000000pt" preserveAspectRatio="xMidYMid meet" version="1.0" viewBox="0 0 214.000000 121.000000">
  <metadata>
    Created by potrace 1.10, written by Peter Selinger 2001-2011
  </metadata>
  <g fill="#8b43ff" stroke="none" transform="translate(0.000000,121.000000) scale(0.100000,-0.100000)">
    <path d="M1300 1070 l0 -110 -87 1 c-49 1 -80 3 -70 6 10 3 17 14 17 29 0 24
0 24 -111 24 l-110 0 3 30 c2 16 -1 28 -7 27 -5 -1 -8 -14 -6 -29 2 -24 -1
-28 -23 -28 -21 0 -26 -5 -26 -24 0 -15 7 -26 18 -29 9 -3 0 -5 -20 -6 -32 -1
-38 -5 -38 -22 0 -16 5 -20 20 -16 13 3 20 0 20 -9 0 -8 10 -14 25 -14 14 0
25 4 25 10 0 6 131 11 350 12 275 2 350 0 350 -9 0 -7 11 -13 25 -13 15 0 25
6 25 14 0 9 7 12 20 9 15 -4 20 0 20 16 0 17 -6 21 -35 21 l-35 0 0 110 0 110
-175 0 -175 0 0 -110z m40 80 c0 -5 -7 -10 -15 -10 -8 0 -15 5 -15 10 0 6 7
10 15 10 8 0 15 -4 15 -10z m50 -50 c0 -53 -2 -60 -20 -60 -18 0 -20 7 -20 60
0 53 2 60 20 60 18 0 20 -7 20 -60z m40 -40 c0 -82 -3 -100 -15 -100 -12 0
-15 18 -15 100 0 82 3 100 15 100 12 0 15 -18 15 -100z m40 0 c0 -73 -3 -100
-12 -100 -10 0 -12 25 -10 100 2 55 8 100 13 100 5 0 9 -45 9 -100z m120 90
c0 -5 -11 -10 -25 -10 -14 0 -25 5 -25 10 0 6 11 10 25 10 14 0 25 -4 25 -10z
m40 0 c0 -5 -7 -10 -15 -10 -8 0 -15 5 -15 10 0 6 7 10 15 10 8 0 15 -4 15
-10z m-100 -20 c0 -5 -11 -10 -25 -10 -14 0 -25 5 -25 10 0 6 11 10 25 10 14
0 25 -4 25 -10z m-190 -36 c0 -15 -6 -24 -15 -24 -15 0 -21 40 -9 53 12 11 24
-3 24 -29z m250 -18 c0 -51 -1 -53 -25 -48 -23 4 -25 9 -25 53 0 46 2 49 25
49 24 0 25 -3 25 -54z m40 34 c0 -11 -4 -20 -9 -20 -11 0 -22 26 -14 34 12 12
23 5 23 -14z m-100 -75 c0 -68 -2 -75 -20 -75 -18 0 -20 7 -20 75 0 68 2 75
20 75 18 0 20 -7 20 -75z m-190 -30 c0 -33 -4 -45 -15 -45 -11 0 -15 12 -15
45 0 33 4 45 15 45 11 0 15 -12 15 -45z m290 0 c0 -25 -4 -45 -10 -45 -5 0
-10 20 -10 45 0 25 5 45 10 45 6 0 10 -20 10 -45z m-240 5 c0 -5 -9 -10 -20
-10 -11 0 -20 5 -20 10 0 6 9 10 20 10 11 0 20 -4 20 -10z m-250 -15 c0 -13
-21 -15 -125 -15 -104 0 -125 2 -125 15 0 13 21 15 125 15 104 0 125 -2 125
-15z m250 -20 c0 -8 -9 -15 -20 -15 -11 0 -20 7 -20 15 0 8 9 15 20 15 11 0
20 -7 20 -15z m200 0 c0 -9 -9 -15 -25 -15 -16 0 -25 6 -25 15 0 9 9 15 25 15
16 0 25 -6 25 -15z m-517 -12 c-29 -2 -77 -2 -105 0 -29 2 -6 3 52 3 58 0 81
-1 53 -3z m430 -20 c-116 -2 -310 -2 -430 0 -120 1 -24 2 212 2 237 0 335 -1
218 -2z"/>
    <path d="M1360 1105 c0 -8 5 -15 10 -15 6 0 10 7 10 15 0 8 -4 15 -10 15 -5 0
-10 -7 -10 -15z"/>
    <path d="M894 1160 c-12 -5 -25 -14 -30 -21 -5 -9 -2 -10 12 -4 33 14 95 18
107 6 13 -13 27 -14 27 -2 0 10 -55 31 -79 30 -9 0 -26 -4 -37 -9z"/>
    <path d="M534 1139 c-42 -12 -101 -79 -110 -123 -11 -61 4 -106 50 -152 52
-52 108 -65 174 -39 139 56 144 244 8 306 -45 20 -74 22 -122 8z m-16 -31
c-16 -12 -16 -14 0 -28 14 -13 15 -12 9 3 -8 22 41 37 54 16 7 -11 9 -11 9 3
0 17 8 16 75 -7 20 -7 20 -6 1 9 -11 9 -15 16 -9 16 16 0 72 -67 79 -94 3 -12
4 -40 1 -62 -3 -36 -4 -35 -5 11 -1 28 -7 57 -12 65 -6 10 -7 3 -3 -24 4 -28
3 -37 -5 -32 -7 4 -12 2 -12 -3 0 -6 5 -11 10 -11 19 0 10 -39 -17 -71 -35
-41 -85 -62 -127 -53 -91 19 -136 108 -100 198 5 14 4 17 -4 12 -7 -4 -12 -4
-12 -1 0 11 61 65 73 65 6 0 3 -6 -5 -12z m-81 -145 c-3 -10 -5 -2 -5 17 0 19
2 27 5 18 2 -10 2 -26 0 -35z m113 -126 c13 -5 13 -6 -1 -6 -8 -1 -24 6 -35
15 -19 15 -19 15 1 6 11 -5 27 -12 35 -15z"/>
    <path d="M581 1030 c0 -15 -6 -31 -13 -38 -19 -19 15 -50 36 -33 8 7 27 11 43
9 20 -2 28 1 28 12 0 9 -8 14 -20 13 -41 -5 -64 6 -68 35 -4 27 -4 27 -6 2z"/>
    <path d="M903 1133 c-7 -2 -13 -9 -13 -14 0 -5 12 -3 26 3 20 9 30 9 45 0 27
-17 38 -14 15 3 -20 15 -49 18 -73 8z"/>
    <path d="M910 1103 c0 -5 13 -8 30 -9 16 -1 27 3 24 7 -6 11 -54 12 -54 2z"/>
    <path d="M168 913 c-15 -4 -18 -17 -18 -84 0 -64 3 -79 15 -79 8 0 15 -7 15
-15 0 -12 17 -15 90 -15 l90 0 0 80 c0 64 -3 80 -15 80 -8 0 -15 6 -15 14 0 8
-7 17 -16 20 -18 7 -120 6 -146 -1z m142 -57 c0 -39 -3 -45 -22 -48 -15 -2
-23 -10 -23 -23 0 -17 -8 -20 -46 -23 -41 -3 -47 0 -53 20 -8 31 -8 103 1 111
3 4 37 7 75 7 l68 0 0 -44z m30 -56 l0 -70 -70 0 c-40 0 -70 4 -70 10 0 6 17
10 38 10 46 0 95 43 92 81 -3 30 -1 39 5 39 3 0 5 -31 5 -70z"/>
    <path d="M180 880 c0 -5 20 -10 44 -10 25 0 48 5 51 10 4 6 -13 10 -44 10 -28
0 -51 -4 -51 -10z"/>
    <path d="M208 853 c17 -2 47 -2 65 0 17 2 3 4 -33 4 -36 0 -50 -2 -32 -4z"/>
    <path d="M180 830 c0 -5 14 -10 30 -10 17 0 30 5 30 10 0 6 -13 10 -30 10 -16
0 -30 -4 -30 -10z"/>
    <path d="M1611 843 c-1 -7 -12 -13 -26 -13 l-25 0 0 -135 0 -135 160 0 160 0
0 135 0 135 -24 0 c-13 0 -27 6 -29 13 -4 10 -6 10 -6 0 -1 -10 -28 -13 -100
-13 -70 0 -101 4 -104 13 -4 10 -6 10 -6 0z m-11 -50 c1 -17 1 -17 11 0 8 14
25 17 104 17 84 0 95 -2 96 -17 0 -13 2 -14 6 -4 5 11 7 11 14 0 7 -11 9 -10
9 4 0 9 7 17 15 17 8 0 15 -9 15 -19 0 -19 -8 -20 -150 -20 -142 0 -150 1
-150 20 0 10 7 19 15 19 8 0 15 -8 15 -17z m268 -131 l3 -93 -147 3 -147 3 -5
90 -4 90 149 0 148 0 3 -93z"/>
    <path d="M1600 710 c0 -28 3 -30 35 -30 28 0 35 4 35 20 0 11 6 20 13 21 22 1
-27 18 -55 18 -25 1 -28 -3 -28 -29z m50 9 c0 -6 -7 -8 -16 -5 -14 5 -15 4 -4
-9 10 -12 10 -15 -4 -15 -16 0 -22 21 -9 33 10 11 33 8 33 -4z"/>
    <path d="M1720 730 c0 -5 18 -10 40 -10 22 0 40 5 40 10 0 6 -18 10 -40 10
-22 0 -40 -4 -40 -10z"/>
    <path d="M1737 703 c18 -2 50 -2 70 0 21 2 7 4 -32 4 -38 0 -55 -2 -38 -4z"/>
    <path d="M1715 680 c-4 -6 5 -10 19 -10 14 0 26 5 26 10 0 6 -9 10 -19 10 -11
0 -23 -4 -26 -10z"/>
    <path d="M1795 680 c-3 -5 3 -10 14 -10 12 0 21 5 21 10 0 6 -6 10 -14 10 -8
0 -18 -4 -21 -10z"/>
    <path d="M1713 654 c9 -9 127 -10 127 -1 0 4 -30 7 -67 7 -36 0 -64 -3 -60 -6z"/>
    <path d="M1600 620 c0 -28 3 -30 35 -30 28 0 35 4 35 20 0 11 5 20 10 20 6 0
10 4 10 8 0 5 -20 9 -45 11 -44 2 -45 1 -45 -29z m50 10 c0 -5 -8 -6 -17 -3
-16 6 -17 5 -3 -12 13 -16 13 -18 0 -13 -24 8 -25 38 -1 38 12 0 21 -4 21 -10z"/>
    <path d="M1737 623 c18 -2 50 -2 70 0 21 2 7 4 -32 4 -38 0 -55 -2 -38 -4z"/>
    <path d="M1790 600 c0 -5 9 -10 20 -10 11 0 20 5 20 10 0 6 -9 10 -20 10 -11
0 -20 -4 -20 -10z"/>
    <path d="M688 725 c-4 -5 -3 -323 2 -537 0 -5 63 -8 140 -8 l140 0 0 -30 c0
-28 -3 -30 -34 -30 -19 0 -38 -4 -41 -10 -4 -6 -73 -10 -174 -10 l-168 0 9 63
c5 34 10 76 11 92 l2 30 -71 3 c-60 2 -73 0 -78 -14 -4 -10 -3 -20 2 -23 5 -3
12 -39 16 -78 l6 -73 -59 0 c-33 0 -63 5 -66 10 -3 6 -14 10 -24 10 -10 0 -26
11 -35 25 -11 16 -26 25 -44 25 -23 1 -34 13 -77 83 -42 68 -50 90 -50 128 1
40 8 55 60 122 33 42 67 76 76 77 9 0 20 8 23 17 5 11 10 13 17 6 6 -6 63 -1
167 17 122 21 156 30 154 41 -11 45 -41 48 -212 16 -97 -19 -115 -25 -112 -40
3 -20 -9 -22 -26 -5 -14 14 -44 -7 -40 -28 4 -19 -134 -194 -153 -194 -9 0
-20 -7 -23 -16 -7 -18 11 -47 24 -39 5 3 36 -38 70 -91 56 -88 61 -99 49 -120
-7 -15 -21 -24 -36 -24 -13 0 -23 -4 -23 -10 0 -5 -26 -11 -57 -13 -114 -7
503 -11 1065 -8 529 4 572 3 572 -13 0 -9 -15 -25 -32 -36 l-33 -20 155 -1
c193 -2 180 -4 211 31 23 27 31 30 87 30 35 0 62 4 62 10 0 6 -18 10 -40 10
l-40 0 0 75 c0 60 -3 75 -15 75 -9 0 -15 9 -15 25 0 14 -4 25 -10 25 -5 0 -10
26 -12 58 l-3 57 -157 3 -158 3 0 -61 c0 -33 -4 -60 -10 -60 -5 0 -10 -9 -10
-20 0 -11 -7 -23 -15 -26 -11 -5 -15 -24 -15 -80 l0 -74 -66 0 c-59 0 -68 3
-86 25 -25 32 -62 32 -92 0 -21 -23 -31 -25 -105 -25 -47 0 -81 4 -81 10 0 6
-18 10 -40 10 -38 0 -40 2 -40 30 l0 30 157 0 156 0 -6 188 c-4 103 -7 226 -7
275 l0 87 -368 0 c-203 0 -371 -2 -374 -5z m730 -182 l-2 -168 -3 163 -3 162
-350 0 -350 0 0 -215 0 -215 355 2 355 3 0 -37 c0 -21 -1 -38 -2 -39 -24 -6
-482 -10 -582 -4 l-136 7 0 254 0 254 360 0 360 0 -2 -167z m-858 139 c0 -11
-269 -57 -277 -48 -10 10 -3 12 117 33 134 24 160 26 160 15z m840 -12 c0 -20
-7 -20 -340 -20 -333 0 -340 0 -340 20 0 20 7 20 340 20 333 0 340 0 340 -20z
m0 -206 l0 -171 -115 -7 c-125 -7 -416 -7 -507 1 l-58 5 0 172 0 171 340 0
340 0 0 -171z m-1158 141 c0 -5 -5 -11 -11 -13 -6 -2 -11 4 -11 13 0 9 5 15
11 13 6 -2 11 -8 11 -13z m-175 -222 c6 -15 7 -15 14 3 7 17 8 17 8 -5 1 -17
-3 -22 -15 -17 -9 3 -20 6 -25 6 -5 0 -9 7 -9 15 0 20 19 19 27 -2z m1925 -73
l3 -90 -141 0 -141 0 -7 31 c-3 17 -6 58 -6 90 l0 59 144 0 145 0 3 -90z
m-1432 -40 c0 -6 -27 -10 -60 -10 -33 0 -60 4 -60 10 0 6 27 10 60 10 33 0 60
-4 60 -10z m0 -30 c0 -5 -25 -10 -55 -10 -30 0 -55 5 -55 10 0 6 25 10 55 10
30 0 55 -4 55 -10z m1130 -9 c0 -5 -6 -12 -12 -14 -7 -3 70 -5 172 -5 102 0
179 2 173 5 -18 7 -16 23 2 23 11 0 15 -12 15 -47 0 -27 3 -58 6 -70 5 -19 2
-23 -15 -23 -11 0 -21 5 -21 10 0 6 5 10 12 10 14 0 1 14 -15 16 -7 0 -19 2
-28 2 -9 1 -16 9 -15 18 0 9 -5 19 -13 22 -10 3 -12 -1 -8 -17 5 -21 3 -21
-129 -21 -83 0 -134 -4 -134 -10 0 -5 5 -10 10 -10 6 0 10 -4 10 -10 0 -5 -11
-10 -25 -10 -24 0 -25 2 -25 70 0 63 2 70 20 70 11 0 20 -4 20 -9z m-1140 -51
l0 -40 -45 0 c-36 0 -45 3 -45 18 0 9 -3 27 -6 40 -6 21 -3 22 45 22 l51 0 0
-40z m570 -30 l0 -30 -71 0 c-61 0 -70 2 -65 16 3 9 6 22 6 30 0 11 16 14 65
14 l65 0 0 -30z m-879 0 c10 -6 19 -15 19 -21 0 -6 -7 -3 -16 5 -19 20 -29 20
-48 1 -22 -22 -32 -18 -11 5 21 23 29 24 56 10z m-6 -20 c3 -5 -3 -10 -15 -10
-12 0 -18 5 -15 10 3 6 10 10 15 10 5 0 12 -4 15 -10z m305 -15 c0 -11 -11
-15 -40 -15 -29 0 -40 4 -40 15 0 11 11 15 40 15 29 0 40 -4 40 -15z m938 -2
c2 -9 -9 -13 -37 -13 -39 0 -50 8 -34 24 11 11 66 2 71 -11z m518 -20 c-13
-56 -35 -63 -183 -63 l-134 0 15 22 c9 12 16 33 16 45 0 23 1 23 146 23 l146
0 -6 -27z m-1728 10 c-27 -2 -69 -2 -95 0 -27 2 -5 3 47 3 52 0 74 -1 48 -3z
m855 0 c-40 -2 -106 -2 -145 0 -40 1 -8 3 72 3 80 0 112 -2 73 -3z"/>
    <path d="M1356 235 c-3 -9 1 -18 10 -22 19 -7 28 2 21 22 -8 19 -23 19 -31 0z"/>
    <path d="M782 580 l3 -30 278 -1 c153 0 281 1 283 4 3 3 2 16 -2 31 l-6 26
-280 0 -279 0 3 -30z m548 0 c0 -19 -7 -20 -265 -20 -258 0 -265 1 -265 20 0
19 7 20 265 20 258 0 265 -1 265 -20z"/>
    <path d="M943 573 c64 -2 170 -2 235 0 64 1 11 3 -118 3 -129 0 -182 -2 -117
-3z"/>
    <path d="M782 414 l3 -107 280 -1 280 -1 -2 55 c-1 30 -2 79 -2 108 l-1 52
-280 0 -281 0 3 -106z m548 28 c0 -69 3 -68 -64 -20 -47 34 -53 34 -91 4 l-30
-24 -54 46 -54 46 -58 -64 -58 -64 -24 22 c-30 28 -38 28 -67 -3 -13 -14 -26
-25 -29 -25 -3 0 -5 33 -3 72 l3 73 265 0 264 0 0 -63z m-256 -1 c21 -22 24
-30 13 -34 -8 -3 -24 1 -36 9 -18 13 -24 13 -42 1 -11 -8 -16 -18 -11 -21 5
-3 15 1 22 9 12 14 17 12 42 -11 22 -22 28 -24 28 -11 0 28 34 19 70 -18 19
-19 40 -35 48 -35 7 0 0 12 -17 26 -17 14 -31 30 -31 34 0 5 13 18 29 29 l28
21 57 -41 c35 -25 56 -47 56 -60 0 -18 -9 -19 -272 -19 l-272 0 34 35 c19 19
38 35 43 35 5 0 25 -14 44 -31 19 -16 38 -27 42 -23 3 4 0 9 -7 11 -8 3 6 26
39 64 28 32 54 59 58 59 4 0 20 -13 35 -29z"/>
    <path d="M1221 401 c-9 -6 -10 -11 -2 -15 6 -4 11 -2 11 4 0 6 10 4 25 -6 28
-18 34 -8 8 12 -21 16 -24 16 -42 5z"/>
    <path d="M824 349 c-21 -23 -7 -25 18 -2 10 9 18 11 18 5 0 -6 7 -9 15 -6 23
9 18 22 -10 22 -13 0 -32 -9 -41 -19z"/>
    <path d="M1815 380 c4 -6 -10 -10 -34 -10 -23 0 -41 -4 -41 -10 0 -5 7 -7 16
-3 14 5 16 0 12 -30 -3 -27 0 -37 10 -37 11 0 13 9 9 35 -5 33 -4 35 24 35 19
0 29 5 29 15 0 8 -7 15 -16 15 -8 0 -12 -4 -9 -10z"/>
    <path d="M1880 370 c0 -5 16 -10 35 -10 19 0 35 5 35 10 0 6 -16 10 -35 10
-19 0 -35 -4 -35 -10z"/>
    <path d="M1820 335 c0 -8 5 -15 10 -15 6 0 10 7 10 15 0 8 -4 15 -10 15 -5 0
-10 -7 -10 -15z"/>
    <path d="M1903 343 c15 -2 37 -2 50 0 12 2 0 4 -28 4 -27 0 -38 -2 -22 -4z"/>
    <path d="M1940 320 c0 -5 7 -10 15 -10 8 0 15 5 15 10 0 6 -7 10 -15 10 -8 0
-15 -4 -15 -10z"/>
    <path d="M1721 293 c-1 -16 5 -23 17 -23 10 0 13 3 6 8 -6 4 -14 14 -17 22 -4
10 -6 8 -6 -7z"/>
    <path d="M1817 290 c-16 -19 -16 -20 3 -20 13 0 20 7 20 20 0 11 -1 20 -3 20
-1 0 -10 -9 -20 -20z"/>
    <path d="M1880 290 c0 -5 16 -10 35 -10 19 0 35 5 35 10 0 6 -16 10 -35 10
-19 0 -35 -4 -35 -10z"/>
    <path d="M1986 173 c-11 -11 -6 -23 9 -23 8 0 15 4 15 9 0 13 -16 22 -24 14z"/>
    <path d="M476 194 c-9 -22 17 -49 39 -40 10 3 15 15 13 28 -4 29 -42 37 -52
12z m35 -8 c5 3 9 1 9 -5 0 -5 -4 -13 -10 -16 -5 -3 -10 -4 -10 -1 0 2 -2 10
-3 18 -2 7 -2 10 0 5 3 -4 9 -5 14 -1z"/>
  </g>
</svg>